#!OML:ASF F:\VICON\USERDATA\INSTALL\rory3\rory3.ASF
:FULLY-SPECIFIED
:DEGREES
79
root 0.6714745656508528 17.529706915065965 29.36792657317709 -2.8037014694819433 3.3934573112650597 0.4063901584998355
lfemur 14.110174182729299 -6.0086089958267745 -24.8378506751093
ltibia 24.38597539649983
lfoot -7.03520845167763 -6.170516864303402
ltoes -27.71941055501659
rfemur -26.73803263611604 2.61659142789062 21.923585244955127
rtibia 21.723634059644642
rfoot -4.967355279189865 -11.169022035110263
rtoes -2.544845442610833
lowerback 11.08670555707214 -1.5473199083142746 -3.3360295666429254
upperback -0.1340150965358397 -2.228059145909511 1.8384736141600662
thorax -5.792996708200335 -0.974828551541381 4.611150077815245
lowerneck -16.665015637615586 -3.297650798223928 -2.7433368491819463
upperneck 21.49341610304252 -4.348369842019571 2.500819240519336
head 9.685791655913468 -1.9640753976978242 0.6798686737047226
lclavicle 3.011974955771201e-16 5.633317727494711e-17
lhumerus -31.66609741868484 3.0502033497279144 79.79883462166777
lradius 32.44753718897503
lwrist 12.7577267571061
lhand -30.312074960766537 17.056590461008383
lfingers 7.125020000000001
lthumb -3.6291015068161867 46.77219764669324
rclavicle 2.997440289969913e-16 5.577139429336944e-17
rhumerus -34.0991931697868 -21.287525704254573 -74.27281944355175
rradius 23.79522947343228
rwrist 6.945320559594336
rhand -17.81109860807737 22.671152780315776
rfingers 7.125020000000001
rthumb 8.531625262974641 -7.224564607088884
80
root 0.5986256058597053 17.588723830345206 30.25706793727034 -2.9825496601718093 2.805697916485472 -1.7038626981096405
lfemur 11.863454387926115 -6.608388079446931 -22.65330489952636
ltibia 32.60203267084775
lfoot -4.9336696311199795 -8.084800709906876
ltoes -29.389055429478596
rfemur -25.38528990597983 3.2344535309247586 24.946093263003853
rtibia 23.611844620811624
rfoot -3.4744241342650506 -9.51211285343256
rtoes -0.23107934409852637
lowerback 11.100309247611962 -1.5249046133969677 -0.9925887354966603
upperback -0.23444540097699829 -1.957307090451766 2.387424794524897
thorax -5.949466712494148 -0.8732791668435542 4.287954025814326
lowerneck -16.67884296423181 -3.1971906618607573 -2.731150324700611
upperneck 21.513391130050252 -4.15816488267225 2.276519786456305
head 9.684417927982594 -1.895334726880449 0.650891985934867
lclavicle 2.999824896486716e-16 5.574501442091214e-17
lhumerus -31.966478590668213 3.1520612477475165 79.99159850497243
lradius 32.35631932686917
lwrist 12.76891611428298
lhand -30.4277807411826 17.155290971316347
lfingers 7.125020000000001
lthumb -3.6306742447733735 47.07481285831192
rclavicle 2.9904731015835603e-16 5.527087611665736e-17
rhumerus -34.02786092804294 -21.336336440326054 -73.86615445458925
rradius 23.25758107419644
rwrist 7.588632144797154
rhand -17.78767137759967 22.56829178877197
rfingers 7.125020000000001
rthumb 8.50992107581362 -7.325683735195639
81
root 0.5208635212803276 17.647309460476624 31.007238249151094 -3.650262724764201 1.9107375885672822 -2.0242062092300266
lfemur 9.285684078837686 -6.024393135706524 -21.73813827867933
ltibia 41.12896141370852
lfoot -2.319603116656701 -9.379983560910413
ltoes -28.26523153189192
rfemur -24.13087161386708 2.1091753104591815 26.769420519928794
rtibia 27.033246288359564
rfoot -2.9716770271856783 -7.859786878269668
rtoes 3.6900096789634684
lowerback 11.137354709134925 -1.2764163907988924 -0.3690384977195662
upperback -0.2544614184518133 -1.5679141777110572 2.6117735681468512
thorax -6.03759241600265 -0.7074715105983792 3.7991910613945077
lowerneck -16.601014476010164 -3.0593048184487714 -2.6756372986373265
upperneck 21.62366164709122 -3.887121956152292 1.8972125250831948
head 9.699672851133926 -1.8039185636062944 0.5765062894658217
lclavicle 3.0188341790170825e-16 5.695746389437905e-17
lhumerus -32.513586975603936 3.036350304657473 80.09535250474003
lradius 32.45798314028877
lwrist 12.691954727967719
lhand -30.43256607526206 17.349687729632755
lfingers 7.125020000000001
lthumb -3.5399009667969397 47.459393875182954
rclavicle 2.9820043101921807e-16 5.466251530886525e-17
rhumerus -33.855534267935184 -21.276430240768736 -73.6463812400511
rradius 22.978017148644565
rwrist 7.9188757184888345
rhand -17.686384469344574 22.523791632467773
rfingers 7.125020000000001
rthumb 8.522664112204298 -7.46772532655822
82
root 0.44260747901128555 17.76130678963512 31.80099326588034 -3.943077831405399 1.7144259729934097 -3.6461171433790227
lfemur 4.766259598572515 -5.507532133119851 -19.258251025169624
ltibia 50.78324671428197
lfoot 1.1843829645970478 -9.752286672145523
ltoes -23.965490483722387
rfemur -21.5139418871089 2.2516976239006303 29.22112085931483
rtibia 28.532236701206585
rfoot -3.4856164686580433 -7.257324096310839
rtoes 6.50004813558542
lowerback 11.058243823649837 -1.1129732064685784 0.8928215803690284
upperback -0.2502935352111639 -1.1829030768136788 2.837017948431173
thorax -6.146120439772959 -0.5384145605444094 3.238964268184354
lowerneck -16.526529196310126 -2.949921732913187 -2.5886402763798606
upperneck 21.784113008054437 -3.6555388328791016 1.500049698579822
head 9.724275445012843 -1.733037161899172 0.4901979483543541
lclavicle 3.0325258178056677e-16 5.785195382648967e-17
lhumerus -33.06307975812469 2.845539724993413 80.10284830664199
lradius 32.68491828544051
lwrist 12.539650090575279
lhand -30.33512346844531 17.576113702649305
lfingers 7.125020000000001
lthumb -3.4039894120472387 47.80270514112841
rclavicle 2.969650955753582e-16 5.377531606756974e-17
rhumerus -33.63141524527474 -21.057931472526978 -73.92293362377103
rradius 23.20611315124753
rwrist 7.601540744356899
rhand -17.510759306184298 22.52358100100677
rfingers 7.125020000000001
rthumb 8.58411150317426 -7.586013980991555
83
root 0.38557429377819885 17.844934506715525 32.65426892643191 -3.9516926440276956 1.1229939837345442 -5.104872375318699
lfemur -0.30984783452234854 -4.775950565566758 -17.02554242315199
ltibia 59.435938809753125
lfoot 1.3546980461415155 -9.002176181842264
ltoes -22.867785127067037
rfemur -18.38703674991004 2.368309251452361 31.307869659939072
rtibia 28.47468571192406
rfoot -4.623584827046901 -7.242000014691681
rtoes 7.3863511116802885
lowerback 11.013153967995164 -0.8509027876615507 2.334907777458948
upperback -0.1802628321756513 -0.636984103495646 2.954253774704039
thorax -6.270533269766507 -0.3058901353470992 2.516055014087142
lowerneck -16.4588554449335 -2.901437922301084 -2.4667655916550704
upperneck 21.868005782750757 -3.5438065182385343 1.189925282591792
head 9.714171002004365 -1.7077813743756616 0.41285977453849915
lclavicle 3.0164202993826827e-16 5.70296993558515e-17
lhumerus -33.38188872849746 2.894759319108305 80.07426936502469
lradius 32.81061499700573
lwrist 12.302014585605194
lhand -30.163258610092974 17.77654060613804
lfingers 7.125020000000001
lthumb -3.2710211424013322 47.977953588138206
rclavicle 2.9647447929100475e-16 5.342275717599787e-17
rhumerus -33.28476308331036 -20.64840200380188 -74.68722136049885
rradius 23.82802190418772
rwrist 6.795597224063741
rhand -17.292189116128107 22.46495744306251
rfingers 7.125020000000001
rthumb 8.70088469564162 -7.645968326754182
84
root 0.34965070755334193 17.92223243014149 33.15473844333083 -4.28715280858874 0.2803889525152412 -5.529000716450804
lfemur -4.774350288286316 -3.693035962616606 -15.851976096474854
ltibia 65.62744918968804
lfoot -1.6173769920696621 -8.024657801930164
ltoes -25.380744150629315
rfemur -15.309348202351776 2.1657652123928774 32.31750211321706
rtibia 28.587059936990627
rfoot -5.98385863927032 -7.401174895393278
rtoes 7.515691204635974
lowerback 11.024306102129483 -0.4635230928056767 2.80586481513407
upperback -0.008651005587870964 -0.07148720299730138 2.8539692926241305
thorax -6.278504187642731 -0.04986513922305222 1.8230764234580816
lowerneck -16.393223852384384 -2.9009776436167867 -2.3070860160012567
upperneck 21.817973564530675 -3.545640882636588 0.9924903588505698
head 9.657437341066668 -1.7197297034411851 0.3479420172397284
lclavicle 3.0062684904390255e-16 5.650829356554471e-17
lhumerus -33.48660409239058 3.214892732416623 80.03606558304286
lradius 32.79428304116447
lwrist 12.136658453740996
lhand -30.005789412006784 17.806375280983374
lfingers 7.125020000000001
lthumb -3.1825816696923797 47.88049987245411
rclavicle 2.971140427036037e-16 5.388174223051634e-17
rhumerus -32.77068189283223 -20.208777598352984 -75.45620431582502
rradius 24.380276604280155
rwrist 6.098325627243517
rhand -17.109719186960195 22.23895114228556
rfingers 7.125020000000001
rthumb 8.847331654683737 -7.653341425439568
